<svg width="208" height="56" viewBox="0 0 208 56" fill="none" xmlns="http://www.w3.org/2000/svg"><path d="M139.359 43.172c0 1.245-.033 2.407.019 3.565.018.407.073.814.089 1.22.015.31-.098.432-.421.432-2.478-.01-4.956-.01-7.436 0-.321 0-.454-.116-.423-.427V.676c.002-.676.002-.676.689-.676h6.913c.672 0 .672 0 .672.694v18.363c1.622-2.104 3.445-3.866 5.754-5.04a11.032 11.032 0 013.885-1.123 16.056 16.056 0 012.308-.185c3.527.126 6.761 1.113 9.573 3.308 3.304 2.58 5.246 5.994 6.234 9.995.227 1.029.376 2.073.445 3.125a21.521 21.521 0 01-1.59 10.22 17.043 17.043 0 01-3.57 5.23 15.668 15.668 0 01-7.551 4.12 16.558 16.558 0 01-4.929.407 12.876 12.876 0 01-7.361-2.778 30.807 30.807 0 01-3.3-3.164zm10.125-23.51a8.866 8.866 0 00-1.916.115c-3.116.672-5.43 2.418-6.951 5.195a12.114 12.114 0 00-1.403 4.883 16.369 16.369 0 00.188 3.72c.176 1.26.716 2.419 1.335 3.526a9.863 9.863 0 004.33 4.15 9.924 9.924 0 005.944.886 9.477 9.477 0 005.958-3.409c1.795-2.154 2.499-4.726 2.599-7.48a14.216 14.216 0 00-.295-3.153 10.596 10.596 0 00-2.633-5.34c-1.914-2.056-4.302-3.138-7.156-3.094zm52.137 18.672c1.509 1.31 3.016 2.617 4.521 3.92.174.153.217.273.053.475a18.01 18.01 0 01-3.576 3.227 16.06 16.06 0 01-5.53 2.586 17.44 17.44 0 01-2.986.494c-.48.033-.961.08-1.443.094a19.1 19.1 0 01-7.735-1.314 17.248 17.248 0 01-4.516-2.609 16.904 16.904 0 01-4.868-6.307 17.952 17.952 0 01-1.407-4.94 23.544 23.544 0 01-.205-3.389 19.54 19.54 0 011.409-7.036 17.223 17.223 0 014.907-6.838 16.128 16.128 0 017.213-3.577c.839-.177 1.695-.228 2.54-.344.998-.136 1.969-.02 2.942.049a15.686 15.686 0 019.943 4.556 17.065 17.065 0 013.523 5.548 22.761 22.761 0 011.341 5.123c.22 1.43.294 2.877.221 4.32a9.594 9.594 0 00-.1 1.07c0 .19-.109.28-.297.281h-25.518c.269 1.958.95 3.748 2.187 5.258a9.397 9.397 0 005.47 3.282 13.37 13.37 0 003.565.187c2.154-.13 4.222-.88 5.952-2.163a23.74 23.74 0 002.394-1.953zm-10.656-9.923c2.844 0 5.69 0 8.534.01.409 0 .481-.163.409-.482-.311-1.557-.699-3.079-1.538-4.465a8.167 8.167 0 00-4.352-3.599 8.386 8.386 0 00-3.932-.435 9.092 9.092 0 00-2.746.704c-1.906.89-3.216 2.388-4.183 4.203-.597 1.125-.892 2.356-1.153 3.594-.07.325.014.48.421.478 2.844-.019 5.688-.008 8.54-.008zM47.342 21.75a18.617 18.617 0 013.271-4.113 18 18 0 0111.57-4.853c2.75-.14 5.425.136 8.024 1.054 1.65.584 3.1 1.52 4.498 2.545.817.636 1.587 1.33 2.304 2.076.204.203.24.3.022.529-1.382 1.46-2.758 2.94-4.132 4.411-.218.236-.366.537-.664.728a17.571 17.571 0 00-3.822-3.088c-1.046-.643-2.197-.953-3.387-1.17a12.185 12.185 0 00-2.229-.102c-1.907 0-3.604.657-5.146 1.717-1.66 1.144-2.769 2.72-3.588 4.544a11.954 11.954 0 00-1.023 5.2c.053 2.646.8 5.087 2.47 7.167a9.821 9.821 0 006.077 3.662c2.314.42 4.539.181 6.634-.86a14.345 14.345 0 003.46-2.43c.274-.26.585-.482.846-.753.205-.203.262-.01.352.08.769.756 1.525 1.526 2.3 2.276a67.239 67.239 0 002.118 1.99c.225.204.205.344.033.521-.38.407-.742.828-1.157 1.193a29.041 29.041 0 01-3.325 2.551 15.29 15.29 0 01-5.6 2.177 22.01 22.01 0 01-5.52.301 18.146 18.146 0 01-7.477-2.175 18.81 18.81 0 01-3.476-2.492c-1.454-1.294-2.593-2.83-3.613-4.477.838-2.327 1.517-4.68 1.714-7.174a25.43 25.43 0 00-.59-7.917c-.261-1.062-.705-2.055-.944-3.117z" fill="#fff"/><path d="M47.342 21.75c.24 1.063.683 2.062.935 3.124.609 2.593.807 5.264.588 7.917-.204 2.485-.875 4.847-1.713 7.175-.497.966-.93 1.967-1.495 2.899a27.515 27.515 0 01-2.696 3.73 23.934 23.934 0 01-5.66 4.767 25.476 25.476 0 01-4.484 2.15 27.154 27.154 0 01-5.42 1.31c-1.554.2-3.126.235-4.688.103a24.114 24.114 0 01-5.725-1.117 24.556 24.556 0 01-6.01-2.849 23.055 23.055 0 01-4.703-4.027A24.817 24.817 0 01.15 33.507a25.297 25.297 0 01-.039-5.16 24.492 24.492 0 011.06-5.135 22.55 22.55 0 012.862-5.972 24.206 24.206 0 014.293-4.859 25.299 25.299 0 015.844-3.795 26.055 26.055 0 015.643-1.83 24.286 24.286 0 0112.867.976 24.626 24.626 0 018.333 4.985 24.489 24.489 0 015.741 7.809c.193.409.299.86.587 1.225zM2.917 30.625a21.312 21.312 0 001.625 8.207 21.395 21.395 0 004.661 6.96 21.512 21.512 0 006.986 4.65 21.595 21.595 0 008.244 1.631c11.948.016 21.607-9.529 21.615-21.348a21.411 21.411 0 00-6.353-15.06 21.62 21.62 0 00-15.163-6.249 21.62 21.62 0 00-15.192 6.18 21.411 21.411 0 00-6.423 15.03z" fill="#8CC440"/><path d="M92.949 20.848c.574-1.008 1.102-2.019 1.78-2.943 1.25-1.703 2.714-3.184 4.638-4.12a11.242 11.242 0 013.506-1.005c.73-.094 1.452-.04 2.178-.085.245-.017.374.022.372.323a845.655 845.655 0 000 7.803c0 .383-.205.425-.495.407-1.475-.07-2.95.144-4.345.629a10.492 10.492 0 00-3.563 2.035c-2.018 1.766-3.067 4.047-3.642 6.584a17.096 17.096 0 00-.431 3.803c.01 4.492 0 8.983.014 13.475 0 .407-.07.554-.527.548a365.12 365.12 0 00-7.175 0c-.384 0-.49-.082-.489-.478.013-11.306.013-22.613 0-33.92 0-.387.09-.487.485-.483 2.409.02 4.818.02 7.228 0 .409 0 .48.114.478.49-.02 2.151-.01 4.302-.01 6.452l-.002.485zm19.8 10.11c0-5.634 0-11.268-.011-16.902 0-.43.098-.544.538-.54 2.391.025 4.782.025 7.172 0 .399 0 .483.104.481.487a17422.86 17422.86 0 000 33.91c0 .385-.088.488-.485.484-2.408-.02-4.817-.02-7.225 0-.409 0-.483-.103-.481-.486.014-5.648.017-11.3.011-16.953zm3.996-22.738h-3.923c-.356 0-.493-.095-.491-.47a522.89 522.89 0 000-6.86c0-.282.061-.383.368-.383 2.687.012 5.373.012 8.058 0 .284 0 .388.059.386.366a577.484 577.484 0 000 6.965c0 .35-.133.384-.425.38-1.329-.004-2.654.002-3.973.002z" fill="#fff"/><path d="M25.09 48.715a24.756 24.756 0 01-14.458-4.912c-.342-.25-.367-.425-.127-.775 1.038-1.52 2.06-3.053 3.063-4.6.204-.326.347-.36.672-.127 2.421 1.754 5.059 3.052 8.005 3.691 1.856.395 3.735.564 5.592.03 1.533-.44 2.688-1.293 2.934-3.015.178-1.26-.336-2.187-1.327-2.905-1.321-.959-2.863-1.4-4.398-1.87-2.63-.814-5.3-1.502-7.77-2.725a10.684 10.684 0 01-3.817-3.092c-1.431-1.858-1.711-3.974-1.527-6.208.356-4.473 3.607-8.054 8.706-9.185 4.142-.928 8.143-.283 12.053 1.176 1.5.567 2.938 1.284 4.293 2.14.268.168.344.286.162.599a247.236 247.236 0 00-2.779 4.946c-.18.33-.309.387-.654.183-2.25-1.322-4.62-2.356-7.197-2.848-1.503-.293-3.012-.375-4.498.055-1.695.486-2.72 1.731-2.713 3.271a2.348 2.348 0 00.846 1.832c1.307 1.164 2.926 1.727 4.543 2.275 2.323.789 4.703 1.412 6.952 2.42 2.194.988 4.15 2.278 5.473 4.355.957 1.502 1.176 3.166 1.108 4.883-.09 2.273-.717 4.367-2.194 6.157-1.65 2.002-3.843 3.103-6.32 3.726a17.776 17.776 0 01-4.622.523z" fill="#8CC440"/></svg>